<svg width="23" height="23" viewBox="0 0 23 23" fill="none" xmlns="http://www.w3.org/2000/svg">
<path d="M11.5 23C17.8513 23 23 17.8513 23 11.5C23 5.14873 17.8513 0 11.5 0C5.14873 0 0 5.14873 0 11.5C0 17.8513 5.14873 23 11.5 23Z" fill="#627EEA"/>
<path d="M11.8574 2.875V9.25032L17.2459 11.6581L11.8574 2.875Z" fill="white" fill-opacity="0.602"/>
<path d="M11.8579 2.875L6.46875 11.6581L11.8579 9.25032V2.875Z" fill="white"/>
<path d="M11.8574 15.7899V20.1218L17.2494 12.6619L11.8574 15.7899Z" fill="white" fill-opacity="0.602"/>
<path d="M11.8579 20.1218V15.7891L6.46875 12.6619L11.8579 20.1218Z" fill="white"/>
<path d="M11.8574 14.7875L17.2459 11.6588L11.8574 9.25244V14.7875Z" fill="white" fill-opacity="0.2"/>
<path d="M6.46875 11.6588L11.8579 14.7875V9.25244L6.46875 11.6588Z" fill="white" fill-opacity="0.602"/>
</svg>
