<svg width="216" height="30" viewBox="0 0 216 30" fill="none" xmlns="http://www.w3.org/2000/svg">
<path d="M29.9995 6.00081V3.0004H27.0033V0H0.00405568V6.00081H18.0022V9.00123H21.0025V20.9988H18.0022V23.9992H0.00405568V30H27.0033V26.9996H29.9995V23.9992H32.9999V6.00081H29.9995ZM12.0014 9.00123H0V21.0028H12.0014V9.00123Z" fill="#F2F2F2"/>
<path d="M65.9995 3.00023V0.00390625H39.0004V3.00023H36V29.9998H48.0015V17.9982H57.0025V29.9998H69.004V3.00023H66.0036H65.9995ZM56.9984 12.0015H47.9974V6.00471H56.9984V12.0015Z" fill="#F2F2F2"/>
<path d="M110.993 0V30H98.9914V15.002H95.991V18.0024H92.9947V21.0028H89.9944V18.0024H86.994V15.002H83.9936V30H71.9922V0H83.9936V3.0004H86.994V6.00081H89.9944V9.00529H92.9947V6.00081H95.991V3.0004H98.9914V0H110.993Z" fill="#F2F2F2"/>
<path d="M146.992 12.0016V3.0004H143.992V0H113.992V30H143.992V26.9996H146.992V17.9984H143.992V11.9976H146.992V12.0016ZM134.995 23.9992H125.998V18.0024H134.995V23.9992ZM134.995 12.0016H125.998V6.00489H134.995V12.0016Z" fill="#F2F2F2"/>
<path d="M161.996 23.999V0.00390625H149.994V29.9998H161.996H179.973V23.999H161.996Z" fill="#F2F2F2"/>
<path d="M215.98 6.00063V0.00390625H194.982H185.981V3.00023H182.98V26.9994H185.981V29.9998H194.982H215.98V24.0031H194.982V18.0023H203.979V12.0015H194.982V6.00063H215.98Z" fill="#F2F2F2"/>
</svg>
